<svg xmlns="http://www.w3.org/2000/svg" viewBox="0 0 245.76 245.76"><defs><style>.cls-1{fill:#4f8b27;}.cls-2{isolation:isolate;}.cls-3{fill:#d1b459;fill-rule:evenodd;}</style></defs><g id="BG"><rect class="cls-1" width="245.76" height="245.76"/></g><g id="HuEverReset" class="cls-2"><g id="HuEverReset-2" data-name="HuEverReset"><path class="cls-3" d="M48.65,160.57a1,1,0,0,0-1.1,1.1V168H41.08v-6.36a1.1,1.1,0,0,0-2.2,0v14.92a1.1,1.1,0,0,0,2.2,0v-6.36h6.47v6.36a1.1,1.1,0,0,0,2.2,0V161.67A1,1,0,0,0,48.65,160.57Zm16.67,6.71c0-.72-.15-1.45-1-1.45s-1.06.73-1.06,1.45v6.14l-3.1,2a1.19,1.19,0,0,1-.66.2h-.7a1.49,1.49,0,0,1-1.24-.44,3.85,3.85,0,0,1-.22-1.37l-.22-6.49c0-.68-.13-1.45-1-1.45s-1.08.82-1.06,1.59l.22,6.64c0,1.14,0,2.05,1,2.86a3,3,0,0,0,2,.77h1.56a3.48,3.48,0,0,0,1.83-.7l1.71-1.13v.36c0,.72.16,1.47,1.06,1.47,1.12,0,1-1.08,1-1.56Zm15-4.51a1.1,1.1,0,1,0,0-2.2H70.56v17.12h9.77a1.1,1.1,0,1,0,0-2.2H72.76v-5.26H76a1.1,1.1,0,1,0,0-2.2H72.76v-5.26ZM96,165.83c-1,0-1.08.82-1.08,1.56v1.08l-3.06,7-3-7v-1.08c0-.74-.14-1.56-1.08-1.56-.75,0-1,.59-1,1.28v1.49a1.68,1.68,0,0,0,.25.86l3.14,6.91c.2.44.57,1.32,1.1,1.32h1.37c.52,0,.9-.88,1.1-1.32l3.14-6.91a1.67,1.67,0,0,0,.24-.86v-1.49C97,166.42,96.72,165.83,96,165.83Zm15.77,1.45-.85-.68a3,3,0,0,0-2.34-.77h-1.93a2.83,2.83,0,0,0-2.33.88l-.75.64a2.79,2.79,0,0,0-1,2.53V174a2.65,2.65,0,0,0,1.08,2.38l.9.79a2.27,2.27,0,0,0,1.9.57h5c.62,0,1.45-.13,1.45-1.06s-.74-1-1.45-1h-4.53a1.78,1.78,0,0,1-1.41-.4l-.53-.57a1,1,0,0,1-.3-.62v-.7h6.77c1.26,0,1.45-.35,1.45-1.56V170A3,3,0,0,0,111.74,167.28Zm-1,3.9h-6.11v-1.5a1,1,0,0,1,.44-1l.72-.52a1.66,1.66,0,0,1,1.08-.25h1.78a1.5,1.5,0,0,1,1,.27l.82.7a1.21,1.21,0,0,1,.26,1Zm14.94-5.35H124a3.18,3.18,0,0,0-1.87.9l-1.65,1.37v-.86c0-.7-.22-1.41-1.06-1.41s-1.06.79-1.06,1.56v8.85c0,.72.16,1.45,1.06,1.45s1.06-.73,1.06-1.45v-5.35l2.94-2.44a1.65,1.65,0,0,1,1.06-.51h.62c.5,0,1,0,1.27.38a1.38,1.38,0,0,1,.22.92c0,.68.31,1.3,1.08,1.3s1-.75,1-1.47a3.09,3.09,0,0,0-.94-2.4A2.77,2.77,0,0,0,125.67,165.83Zm15.64-5.26h-7.39v16a1.1,1.1,0,1,0,2.2,0v-8.18h.51l6.07,8.66a1.15,1.15,0,0,0,1,.62,1.06,1.06,0,0,0,1.12-1,2.23,2.23,0,0,0-.55-1.17l-5-7.08h2a3.2,3.2,0,0,0,3.48-3.13v-1.52A3.33,3.33,0,0,0,141.31,160.57Zm1.28,4.71c0,.88-1,.92-1.59.92h-4.88v-3.43H141c.66,0,1.56.11,1.56,1Zm16.67,2-.85-.68a3,3,0,0,0-2.34-.77h-1.93a2.83,2.83,0,0,0-2.33.88l-.75.64a2.79,2.79,0,0,0-1,2.53V174a2.65,2.65,0,0,0,1.08,2.38l.9.79a2.27,2.27,0,0,0,1.9.57h5c.62,0,1.45-.13,1.45-1.06s-.74-1-1.45-1h-4.53a1.78,1.78,0,0,1-1.41-.4l-.53-.57a1,1,0,0,1-.3-.62v-.7h6.77c1.26,0,1.45-.35,1.45-1.56V170A3,3,0,0,0,159.26,167.28Zm-1,3.9h-6.11v-1.5a1,1,0,0,1,.44-1l.72-.52a1.66,1.66,0,0,1,1.08-.25h1.78a1.5,1.5,0,0,1,1,.27l.82.7a1.21,1.21,0,0,1,.26,1Zm15.89.37-5.28-2.4c-.31-.13-.58-.26-.58-.61,0-.68.75-.6,1.19-.6h3.21a1.55,1.55,0,0,1,1.3.42,1.13,1.13,0,0,0,.9.44,1.07,1.07,0,0,0,1.08-1.05c0-.6-.44-.86-.83-1.19a3.08,3.08,0,0,0-2.45-.73h-3.6a2.7,2.7,0,0,0-2.91,2.69,2.6,2.6,0,0,0,1.85,2.57l5,2.27c.49.22,1.1.55,1.1,1,0,1.23-1,1.17-1.76,1.17h-2.86a2.25,2.25,0,0,1-1.69-.46,1,1,0,0,0-.82-.38,1.08,1.08,0,0,0-1.1,1.06c0,.53.58.92,1,1.23a3.77,3.77,0,0,0,2.64.66h3.26c2,0,3.47-1,3.47-3.15A3,3,0,0,0,174.14,171.55Zm16.8-4.27-.85-.68a3,3,0,0,0-2.34-.77h-1.93a2.83,2.83,0,0,0-2.33.88l-.75.64a2.79,2.79,0,0,0-1,2.53V174a2.65,2.65,0,0,0,1.08,2.38l.9.79a2.27,2.27,0,0,0,1.9.57h5c.62,0,1.45-.13,1.45-1.06s-.74-1-1.45-1h-4.53a1.78,1.78,0,0,1-1.41-.4l-.53-.57a1,1,0,0,1-.3-.62v-.7h6.77c1.26,0,1.45-.35,1.45-1.56V170A3,3,0,0,0,190.94,167.28Zm-1,3.9h-6.11v-1.5a1,1,0,0,1,.44-1l.72-.52a1.66,1.66,0,0,1,1.08-.25h1.78a1.5,1.5,0,0,1,1,.27l.82.7a1.21,1.21,0,0,1,.26,1Zm16.88,2.62a1.08,1.08,0,0,0-1.06.85c-.22.86-.62.93-1.47.93H203.2c-1.45,0-1.41-.68-1.41-1.87v-5.77h3.54c.62,0,1.45-.13,1.45-1.05s-.74-1.06-1.45-1.06h-3.54v-2.16c0-.72-.15-1.45-1.06-1.45s-1,.73-1,1.45v2.16H199c-.71,0-1.46.15-1.46,1.06s.84,1.05,1.46,1.05h.68v5.75a3.76,3.76,0,0,0,.77,2.94,3.43,3.43,0,0,0,2.73,1.06h1.07a3.41,3.41,0,0,0,2.91-1.08,3.15,3.15,0,0,0,.72-1.76A1.05,1.05,0,0,0,206.81,173.8Z"/></g></g><g id="HER_" data-name="HER?" class="cls-2"><g id="HER_2" data-name="HER?"><path class="cls-3" d="M166.83,127.14h5.89V85.91H131.48V133H102v-5.89h17.67V109.47H102v-5.89h23.57V85.91H84.35v23.56h-5.9V85.91H60.78v23.56H54.89V85.91H37.21v23.56H25.43v17.67H37.21V150.7H54.89V127.14h5.89V150.7H78.45V127.14h5.9V150.7h64.8v-5.89H155v5.89h20.62V133h-8.83ZM155,121.25h-5.89V103.58H155Zm23.57-35.34v17.67h23.56v5.89H184.5v17.67h35.35V85.91Zm5.89,64.79h17.67V133H184.5Z"/></g></g></svg>